<?xml version="1.0" encoding="UTF-8"?>
<svg width="164px" height="26px" viewBox="0 0 164 26" version="1.1" xmlns="http://www.w3.org/2000/svg" xmlns:xlink="http://www.w3.org/1999/xlink">
    <!-- Generator: Sketch 54.1 (76490) - https://sketchapp.com -->
    <title>Logo</title>
    <desc>Created with Sketch.</desc>
    <g id="Symbols" stroke="none" stroke-width="1" fill="none" fill-rule="evenodd">
        <g id="D:-Header" transform="translate(-30.000000, -16.000000)">
            <g id="Logo" transform="translate(30.000000, 16.000000)">
                <path d="M159.813578,13.8401742 C159.751957,13.9270738 159.688389,14.0126633 159.62893,14.1010913 C158.151092,16.2967245 156.669795,18.4898467 155.199308,20.6903926 C154.845686,21.2196502 154.373578,21.4243445 153.748389,21.4786022 C152.717795,21.5681218 152.055632,21.1580782 151.496389,20.28679 C150.154876,18.1968336 148.732605,16.1598249 147.342443,14.1017463 C147.289254,14.0229253 147.230876,13.9475978 147.113686,13.8819865 L147.113686,14.1923576 C147.113686,16.7572048 147.114011,19.322052 147.11293,21.8870083 C147.112822,22.0230345 147.108389,22.1599341 147.093038,22.2949777 C147.039524,22.7665935 146.745254,23.0638642 146.274984,23.0731437 C145.491632,23.0884275 144.707741,23.0889734 143.924389,23.0737987 C143.385362,23.0634275 143.080714,22.7062223 143.080389,22.1206328 C143.078768,19.0100432 143.079524,15.8994537 143.079524,12.7888642 C143.079524,11.3426852 143.078443,9.89661529 143.080065,8.45043625 C143.080822,7.77969389 143.389686,7.46670262 144.0552,7.46451922 C144.937795,7.46157162 145.820605,7.47270699 146.703092,7.46080743 C147.422011,7.45120044 147.95693,7.74279433 148.357795,8.34868952 C149.938227,10.7375542 151.531308,13.1180127 153.119632,15.501528 C153.149795,15.5468336 153.179524,15.5923576 153.210443,15.6371175 C153.456281,15.993886 153.616497,15.9959603 153.851957,15.6397376 C154.716822,14.331659 155.580173,13.0225978 156.444173,11.7139734 C157.188389,10.5866808 157.937686,9.46288166 158.674659,8.33089476 C159.059308,7.74006507 159.592173,7.45971572 160.285903,7.46277249 C161.186551,7.46659345 162.087308,7.46178996 162.987957,7.46441005 C163.638443,7.46637511 163.962659,7.77740131 163.9632,8.4289297 C163.966876,12.9856983 163.966768,17.5423576 163.9632,22.0991262 C163.962659,22.7639734 163.635632,23.077183 162.972281,23.079148 C162.278768,23.0812223 161.585254,23.0807856 160.891741,23.0793664 C160.19693,23.0779472 159.882011,22.7656109 159.88147,22.0645192 C159.879092,19.4268555 159.880281,16.7893009 159.880065,14.1516371 C159.880065,14.0546939 159.880065,13.9576415 159.880065,13.8606983 C159.857903,13.8538205 159.835741,13.8469428 159.813578,13.8401742" id="Fill-6" fill="#0A1428"></path>
                <path d="M46.7344071,13.8401742 C46.6727854,13.9270738 46.6092179,14.0126633 46.5497584,14.1010913 C45.0719206,16.2967245 43.5906233,18.4898467 42.1201368,20.6903926 C41.7665152,21.2196502 41.2944071,21.4243445 40.6692179,21.4786022 C39.6386233,21.5681218 38.9764611,21.1580782 38.4172179,20.28679 C37.0757044,18.1968336 35.6534341,16.1598249 34.2632719,14.1017463 C34.2100827,14.0229253 34.1517044,13.9475978 34.0345152,13.8819865 L34.0345152,14.1923576 C34.0345152,16.7572048 34.0348395,19.322052 34.0337584,21.8870083 C34.0336503,22.0230345 34.0292179,22.1599341 34.0138665,22.2949777 C33.960353,22.7665935 33.6660827,23.0638642 33.1958125,23.0731437 C32.4124611,23.0884275 31.6285692,23.0889734 30.8452179,23.0737987 C30.3061908,23.0634275 30.0015422,22.7062223 30.0012179,22.1206328 C29.9995962,19.0100432 30.000353,15.8994537 30.000353,12.7888642 C30.000353,11.3426852 29.9992719,9.89661529 30.0008935,8.45043625 C30.0016503,7.77969389 30.3105152,7.46670262 30.9760287,7.46451922 C31.8586233,7.46157162 32.7414341,7.47270699 33.6239206,7.46080743 C34.3428395,7.45120044 34.8777584,7.74279433 35.2786233,8.34868952 C36.8590557,10.7375542 38.4521368,13.1180127 40.0404611,15.501528 C40.0706233,15.5468336 40.100353,15.5923576 40.1312719,15.6371175 C40.3771098,15.993886 40.537326,15.9959603 40.7727854,15.6397376 C41.6376503,14.331659 42.5010017,13.0225978 43.3650017,11.7139734 C44.1092179,10.5866808 44.8585152,9.46288166 45.5954881,8.33089476 C45.9801368,7.74006507 46.5130017,7.45971572 47.2067314,7.46277249 C48.10738,7.46659345 49.0081368,7.46178996 49.9087854,7.46441005 C50.5592719,7.46637511 50.8834881,7.77740131 50.8840287,8.4289297 C50.8877044,12.9856983 50.8875962,17.5423576 50.8840287,22.0991262 C50.8834881,22.7639734 50.5564611,23.077183 49.8931098,23.079148 C49.1995962,23.0812223 48.5060827,23.0807856 47.8125692,23.0793664 C47.1177584,23.0779472 46.8028395,22.7656109 46.802299,22.0645192 C46.7999206,19.4268555 46.8011098,16.7893009 46.8008935,14.1516371 C46.8008935,14.0546939 46.8008935,13.9576415 46.8008935,13.8606983 C46.7787314,13.8538205 46.7565692,13.8469428 46.7344071,13.8401742" id="Fill-6-Copy" fill="#0A1428"></path>
                <path d="M109.918584,19.3660039 C110.881827,19.3660039 111.845178,19.3682965 112.808422,19.3650214 C113.279665,19.363493 113.376097,19.2149122 113.185395,18.7825978 C112.1868,16.5178598 111.187557,14.2533402 110.18053,11.992314 C110.122908,11.8627288 109.995341,11.7649122 109.900314,11.6523576 C109.811557,11.767314 109.695881,11.8700432 109.638259,11.9991917 C108.749503,13.9951524 107.867773,15.994279 106.985611,17.9934057 C106.846692,18.3082528 106.706584,18.6229908 106.581286,18.9435149 C106.489503,19.1784493 106.568854,19.3080345 106.813719,19.3517026 C106.901503,19.3674231 106.992962,19.3654581 107.082692,19.3655673 C108.027989,19.3664406 108.973286,19.3661131 109.918584,19.3660039 M110.011773,23.0797594 C108.219341,23.0797594 106.426908,23.0791044 104.634476,23.0800869 C103.934692,23.0804144 103.615449,23.3691699 103.53707,24.0755018 C103.504962,24.3645847 103.4948,24.6563969 103.457611,24.9447157 C103.387449,25.4879472 103.031449,25.8060694 102.489178,25.8116371 C101.912854,25.8175323 101.336205,25.8175323 100.759881,25.8113096 C100.22453,25.8055236 99.9242054,25.5221175 99.8729622,24.9890389 C99.8651784,24.907707 99.8619351,24.8256109 99.861827,24.7439515 C99.8612865,23.1794319 99.8603135,21.6150214 99.8619351,20.0505018 C99.8625838,19.5051961 99.9990162,19.3680782 100.528314,19.3663314 C100.789503,19.3654581 101.051016,19.3587987 101.311881,19.3677507 C101.761503,19.3831437 102.052205,19.1837987 102.239016,18.7665498 C103.380314,16.216659 104.531665,13.6714624 105.680314,11.1249559 C106.0868,10.2236459 106.50053,9.32561092 106.900854,8.42157162 C107.190692,7.76676813 107.680314,7.45639695 108.388638,7.46141878 C109.550476,7.46960655 110.712638,7.47233581 111.874368,7.45934455 C112.329827,7.45421354 112.612962,7.64842752 112.799449,8.0620738 C114.4028,11.6176415 116.017719,15.1678598 117.616638,18.7253926 C117.818259,19.1740825 118.114476,19.392969 118.598584,19.3680782 C118.796205,19.3579253 118.995124,19.362183 119.192962,19.3720083 C119.644746,19.3941699 119.940962,19.6729908 119.945935,20.1319428 C119.951016,20.6129472 119.915016,21.0947157 119.887341,21.5756109 C119.824097,22.6739734 119.761935,23.7725542 119.685395,24.8700432 C119.640638,25.5106546 119.305286,25.8099996 118.664638,25.812838 C118.007124,25.8156764 117.349611,25.8153489 116.691989,25.8126197 C116.271016,25.8108729 116.1108,25.6443882 116.10907,25.2126197 C116.107232,24.7214624 116.109286,24.2303052 116.108314,23.739148 C116.107341,23.228886 115.957503,23.0799777 115.443232,23.0798686 C113.632746,23.0794319 111.822259,23.0797594 110.011773,23.0797594" id="Fill-8" fill="#0A1428"></path>
                <path d="M63.0541622,19.9623795 C63.3642162,19.9235149 63.9862703,19.8817026 64.5932973,19.7618336 C65.7156757,19.5402179 66.743027,19.0926197 67.5741622,18.2705673 C69.5831351,16.283886 69.1109189,12.9834493 66.6217297,11.533231 C65.6334054,10.9573576 64.5620541,10.6841044 63.4364324,10.6118336 C61.8469189,10.5098686 60.3041081,10.6926197 58.9044324,11.5301742 C57.4945946,12.3737332 56.7358919,13.617838 56.7464865,15.2976415 C56.7570811,16.9783183 57.5387027,18.2062659 58.9541622,19.0366153 C60.1229189,19.7222048 61.4117838,19.9385804 63.0541622,19.9623795 M62.9142703,6.99414804 C64.8211892,7.01106944 66.8135135,7.31980306 68.6668108,8.2468773 C70.7787027,9.30331834 72.2975135,10.9068118 72.8579459,13.2687114 C73.7416216,16.9933838 72.2745946,20.5154362 68.6829189,22.2886895 C67.2219459,23.0100869 65.6714595,23.3629253 64.0588108,23.4797376 C62.2127568,23.6135804 60.3890811,23.4976415 58.6054054,22.9710039 C57.0602162,22.5146721 55.6656216,21.782576 54.5294054,20.6060476 C53.0517838,19.0759166 52.4193514,17.2136895 52.4552432,15.1039734 C52.5178378,11.4289734 54.7645405,8.99862402 57.7684324,7.85506507 C59.3034595,7.27078559 60.9618378,6.99513057 62.9142703,6.99414804" id="Fill-10" fill="#0A1428"></path>
                <path d="M130.673589,20.0069537 C131.333697,19.9278052 132.001049,19.8869756 132.652184,19.760993 C133.765914,19.5454908 134.784941,19.099421 135.614238,18.2897048 C137.644508,16.3074996 137.181157,12.9906873 134.681373,11.5335913 C133.692941,10.9574996 132.621589,10.6842463 131.495968,10.6118664 C129.906346,10.509683 128.362995,10.691779 126.963751,11.530207 C125.545373,12.380207 124.785265,13.6327179 124.804508,15.3247485 C124.823535,16.9953817 125.609265,18.210993 127.013157,19.0363205 C128.139427,19.6984384 129.381805,19.9230018 130.673589,20.0069537 M130.834454,23.5306437 C128.768724,23.5209275 126.762454,23.2183074 124.8924,22.2725651 C122.854995,21.2421066 121.359751,19.7037878 120.801265,17.4321721 C120.066238,14.4430891 120.645265,11.7629581 122.940508,9.60346027 C124.119535,8.49418079 125.547427,7.83129869 127.102238,7.45400612 C130.05467,6.73773974 132.983751,6.80116769 135.848616,7.86579651 C137.824184,8.59996682 139.403968,9.8445083 140.378562,11.7767135 C141.091319,13.1900323 141.296616,14.7029144 141.100292,16.2572812 C140.660508,19.7395956 138.516508,21.7497485 135.378886,22.8493118 C133.911535,23.3635039 132.383751,23.5345738 130.834454,23.5306437" id="Fill-12" fill="#0A1428"></path>
                <path d="M79.2944108,17.2878707 C79.7184108,16.809814 80.1436,16.3327397 80.5663027,15.8534821 C82.9084649,13.1976961 85.2505189,10.54191 87.5910595,7.88459564 C87.8334378,7.6093773 88.1348432,7.46778341 88.4945189,7.46592752 C89.4221946,7.46101485 90.3499784,7.45872228 91.2776541,7.46658254 C91.8294378,7.47116769 92.1668432,7.79125503 92.1676,8.34529433 C92.1740865,12.9568664 92.1740865,17.5684384 92.1684649,22.1799013 C92.1677081,22.7460585 91.8247892,23.0726961 91.264573,23.0774996 C90.4629514,23.0844865 89.6612216,23.0849231 88.8596,23.0772812 C88.3231676,23.0722594 88.0083568,22.7623249 87.9677081,22.2214952 C87.9596,22.1128707 87.9616541,22.0033729 87.9616541,21.8943118 C87.9613297,19.120076 87.9613297,16.3458402 87.9613297,13.5716044 C87.9613297,13.4653817 87.9613297,13.3592681 87.9613297,13.2530454 L87.8688973,13.1868882 C87.8103027,13.2729144 87.7600324,13.3663642 87.6919243,13.4438751 C85.2351676,16.2400542 82.7767892,19.0349231 80.3185189,21.8297921 C80.0732216,22.1086131 79.8283568,22.3876524 79.5806811,22.66429 C79.3317081,22.9423467 79.0212216,23.0808838 78.6480324,23.0801197 C77.7562486,23.0783729 76.864573,23.0824122 75.9728973,23.0785913 C75.346627,23.0759712 75.0238162,22.7510804 75.0236,22.1193118 C75.0220865,17.5531546 75.0220865,12.9871066 75.0236,8.42105852 C75.0238162,7.78448647 75.3391676,7.46811092 75.9724649,7.46472664 C76.7290054,7.46079651 77.4856541,7.46177904 78.2421946,7.46439913 C78.9240324,7.46669171 79.2328973,7.78645153 79.2334378,8.50009782 C79.2354919,11.3106873 79.2343027,14.1212769 79.2344108,16.9318664 C79.2344108,17.0403817 79.2343027,17.1487878 79.2343027,17.2571939 C79.2544108,17.2674559 79.2744108,17.2776087 79.2944108,17.2878707" id="Fill-14" fill="#0A1428"></path>
                <path d="M80.7391568,1.0099559 C81.1172108,1.00984673 81.4956973,1.0198904 81.8733189,1.00646245 C82.1342919,0.997182974 82.3218595,1.09969389 82.469427,1.30722664 C82.6058595,1.49914804 82.7427243,1.69128778 82.8900757,1.87447555 C83.5661838,2.71454105 84.8372108,2.57196463 85.2652108,1.57785983 C85.4552649,1.13659345 85.7119135,0.980698258 86.1712649,1.0018773 C86.8449946,1.03277249 87.5212108,1.00689913 88.1962378,1.01093843 C88.7655351,1.01443188 88.9609946,1.22076376 88.9167784,1.79969389 C88.8164541,3.11170262 88.1139676,4.02960655 87.0116973,4.65416987 C85.8347243,5.32109127 84.5544,5.48844935 83.2272649,5.36956289 C82.2914811,5.28572009 81.4060757,5.04281616 80.6229405,4.49478123 C79.6919135,3.84347118 79.1551568,2.94216114 78.9785081,1.81934455 C78.8908324,1.26137511 79.099373,1.01836201 79.6589405,1.01093843 C80.0189405,1.00613494 80.3790486,1.01006507 80.7391568,1.0099559" id="Fill-16" fill="#0A1428"></path>
                <path d="M1.5152169,6.72580235 L8.75760845,0.984831305 C9.48540737,0.407912409 10.5145926,0.407912409 11.2423916,0.984831305 L18.4847831,6.72580235 C19.441948,7.48453736 20,8.63901355 20,9.860424 L20,21.9268996 C20,23.0314691 19.1045695,23.9268996 18,23.9268996 L2,23.9268996 C0.8954305,23.9268996 2.09738034e-15,23.0314691 0,21.9268996 L8.8817842e-16,9.860424 C7.38598779e-16,8.63901355 0.558051982,7.48453736 1.5152169,6.72580235 Z" id="Rectangle" fill="#3E7FFF"></path>
                <path d="M9.99999999,24 C9.99999999,18.4771525 5.52284749,14 -5.29792032e-09,14 C5.52284749,14 9.99999999,9.5228475 9.99999999,4 C9.99999999,9.5228475 14.4771525,14 20,14 C14.4771525,14 9.99999999,18.4771525 9.99999999,24 Z" id="Combined-Shape" fill="#FFFFFF"></path>
            </g>
        </g>
    </g>
</svg>