<?xml version="1.0" encoding="UTF-8"?>
<svg width="19px" height="20px" viewBox="0 0 19 20" version="1.1" xmlns="http://www.w3.org/2000/svg" xmlns:xlink="http://www.w3.org/1999/xlink">
    <!-- Generator: Sketch 54.1 (76490) - https://sketchapp.com -->
    <title>Pointer</title>
    <desc>Created with Sketch.</desc>
    <defs>
        <path d="M8.03030872,19 C8.03030872,19 5.81106595,17.3012618 5.03030885,16 C4.24955176,14.6987382 2.77005657,13.0410095 3.03030896,12 C3.29056133,10.9589905 4.24955175,10.6309149 5.03030893,11.4116721 C5.81106615,12.1924292 6.33700745,13.8840694 6.85751229,13.623817 C7.37801713,13.3635647 6.9876383,10.8911672 6.46713374,9.45977918 C5.94662912,8.0283912 5.40395853,5.00000017 6.46713373,5 C7.53030893,4.99999991 7.53030872,6 8.03030872,7.5 C8.53030874,8.99999999 8.13993006,10.9999993 8.53030872,11 C8.92068739,11.0000006 9.06965722,10.6506308 9.06965733,10 C9.06965736,9.82318548 9.10432458,9.67374541 9.1747111,9.54985954 C9.36332844,9.21787805 9.80844565,9.06940091 10.5303087,9.06940079 C11.5215502,9.06940079 11.0303087,11.0000001 11.5303087,11 C12.0303087,11 12.0303091,11.0410094 12.0303087,10 C12.0303083,8.95899063 12.493948,9.06940096 13.493948,9.06940079 C14.493948,9.06940079 14.0098044,10.9999999 14.5303087,11 C15.0508131,11.0000001 14.5303087,10.0000001 15.0303087,10 C15.5303087,10 16.0303081,10.1577286 16.0303087,12.5 C16.0303093,14.8422714 16.3110662,14.9589904 15.5303087,16 C14.7495512,17.0410096 14.0303087,18 14.0303087,18 C14.0303087,18 14.0303087,19 13.493948,19 C12.9575872,19.0000001 12.68094,17.9999999 12.0303087,18 C11.3796774,18.0000001 11.0303087,19 11.0303087,19 L8.03030872,19 Z M14.030309,17 L14.030309,13 L13.030309,13 L13.030309,17 L14.030309,17 Z M11.030309,16 C11.030309,16.2708838 11.2622426,17 11.530309,17 C11.8064513,17 12.030309,16.2754211 12.030309,16 L12.030309,14 C12.030309,13.7291162 11.7983754,13 11.530309,13 C11.2541666,13 11.030309,13.7245789 11.030309,14 L11.030309,16 Z M9.03030896,16 C9.03030896,16.2708838 9.26224255,17 9.53030896,17 C9.80645133,17 10.030309,16.2754211 10.030309,16 L10.030309,14 C10.030309,13.7291162 9.79837536,13 9.53030896,13 C9.25416658,13 9.03030896,13.7245789 9.03030896,14 L9.03030896,16 Z" id="path-1"></path>
        <filter x="-34.3%" y="-23.7%" width="172.3%" height="162.9%" filterUnits="objectBoundingBox" id="filter-2">
            <feMorphology radius="1" operator="dilate" in="SourceAlpha" result="shadowSpreadOuter1"></feMorphology>
            <feOffset dx="0" dy="1" in="shadowSpreadOuter1" result="shadowOffsetOuter1"></feOffset>
            <feGaussianBlur stdDeviation="1" in="shadowOffsetOuter1" result="shadowBlurOuter1"></feGaussianBlur>
            <feComposite in="shadowBlurOuter1" in2="SourceAlpha" operator="out" result="shadowBlurOuter1"></feComposite>
            <feColorMatrix values="0 0 0 0 0   0 0 0 0 0   0 0 0 0 0  0 0 0 0.4 0" type="matrix" in="shadowBlurOuter1"></feColorMatrix>
        </filter>
    </defs>
    <g id="Symbols" stroke="none" stroke-width="1" fill="none" fill-rule="evenodd">
        <g id="Cursor/Hover" transform="translate(0.000000, -3.000000)">
            <g id="Pointer">
                <use fill="black" fill-opacity="1" filter="url(#filter-2)" xlink:href="#path-1"></use>
                <path stroke="#000000" stroke-width="1" d="M7.34649379,6.97507885 C7.34490202,6.96953082 7.34330486,6.96395844 7.34170214,6.95836114 C7.34399296,6.96636153 7.34591888,6.97308062 7.34750236,6.97859768 Z M6.6063616,12.8688683 C6.60272626,12.6645732 6.59540566,12.3732696 6.55612624,12.0393946 C6.46335155,11.25081 6.24506499,10.3121779 5.99723701,9.63065068 C5.69749217,8.80635221 5.44123825,7.64931273 5.37456164,6.72925958 C5.2775822,5.39106558 5.54088002,4.50000015 6.46713369,4.5 C7.39352795,4.49999992 7.80010169,4.98578078 8.13158006,6.08624342 C8.10180627,5.98739852 8.39824236,7.02266209 8.50465037,7.34188611 C8.60936574,7.65603222 8.68302923,7.99864222 8.73255273,8.37472107 C8.76932856,8.65399474 8.78971856,8.89031331 8.80334535,9.2025009 C9.11873012,8.75182727 9.69645556,8.56940093 10.5303087,8.56940079 C11.1193464,8.56940079 11.429019,8.87344846 11.5941035,9.40706062 C11.6716987,9.10593831 11.8245525,8.88692891 12.0767491,8.74131921 C12.3602115,8.57765775 12.5655828,8.56045628 13.2490452,8.56773854 C13.3689303,8.56899267 13.4226229,8.5694008 13.493948,8.56940079 C14.1577064,8.56940079 14.4692282,8.95190243 14.6232638,9.61662629 C14.7363598,9.54192954 14.8743799,9.50000003 15.0303087,9.5 C16.0887537,9.5 16.5303082,10.2823549 16.5303087,12.4999999 C16.5303088,12.9125726 16.5383263,13.2604767 16.5545164,13.6875433 C16.5985755,14.8497428 16.5948422,14.9979705 16.4485036,15.4100702 C16.350829,15.6851285 16.1951602,15.9468649 15.9303087,16.3000001 C14.8969495,17.6778121 14.7999733,17.8071137 14.5232936,18.1760202 C14.5128419,18.3113719 14.489589,18.4677182 14.4461986,18.6295137 C14.3105875,19.135185 14.0170789,19.5 13.4939481,19.5 C13.1132703,19.5000001 12.8654377,19.3231063 12.5479989,18.9659274 C12.5171651,18.9312336 12.4856518,18.8949899 12.427785,18.8282135 C12.2068051,18.5742554 12.1071553,18.5 12.0303088,18.5 C11.9485456,18.5 11.8282311,18.5907818 11.700807,18.7796466 C11.6023882,18.9255204 11.5330563,19.0769638 11.5023307,19.1649097 L11.3852607,19.5 L7.86090972,19.5 L7.72639516,19.3970347 C7.61937201,19.3151129 7.43563076,19.1694172 7.20048047,18.9743411 C6.80900393,18.6495797 6.41739929,18.3046237 6.0505666,17.9532621 C5.74294615,17.6586155 5.46603689,17.3718986 5.22704888,17.0965327 C4.96960195,16.799898 4.75924971,16.5200601 4.60156239,16.2572479 C4.42884105,15.969379 4.34343481,15.8424581 3.83248929,15.099907 C3.73780003,14.9622963 3.66586091,14.8569915 3.59639474,14.7539705 C2.7086449,13.4374033 2.35371817,12.6448103 2.54523771,11.8787322 C2.90196557,10.4518208 4.33404679,10.0083032 5.38386229,11.0581187 C5.63705532,11.3113117 5.85835415,11.6241829 6.13469949,12.0836864 C6.19791651,12.1888029 6.4094942,12.5495202 6.45036939,12.6177801 C6.50949232,12.7165129 6.56052213,12.7988317 6.6063616,12.8688683 Z M13.530309,17 L14.030309,16.5 L13.030309,16.5 L13.530309,17 L13.530309,13 L13.030309,13.5 L14.030309,13.5 L13.530309,13 L13.530309,17 Z M11.7107033,13.446887 C11.6830363,13.4719991 11.6262939,13.5 11.530309,13.5 C11.4220185,13.5 11.3637659,13.4664768 11.3386547,13.4394851 C11.3672849,13.4809674 11.3940024,13.5309946 11.420387,13.5933254 C11.4842988,13.7443103 11.530309,13.9331742 11.530309,14 L11.530309,16 C11.530309,16.0716349 11.4855417,16.2603554 11.4228269,16.4097725 C11.3938384,16.4788371 11.3644348,16.5320146 11.3431994,16.5593743 C11.3775817,16.5280009 11.434324,16.5 11.530309,16.5 C11.6385994,16.5 11.6968521,16.5335232 11.7219632,16.5605149 C11.6933331,16.5190326 11.6666155,16.4690054 11.6402309,16.4066746 C11.5763191,16.2556897 11.530309,16.0668258 11.530309,16 L11.530309,14 C11.530309,13.9283651 11.5750762,13.7396446 11.637791,13.5902275 C11.6667795,13.5211629 11.6961831,13.4679854 11.7174185,13.4406257 Z M11.3431994,16.5593743 C11.3420555,16.5608481 11.3409353,16.5622471 11.3398401,16.5635695 C11.342629,16.5602019 11.3459774,16.5566867 11.3499147,16.553113 Z M11.7219632,16.5605149 C11.723395,16.562054 11.7247191,16.5635719 11.7259386,16.5650611 C11.7223416,16.5606686 11.7184961,16.5555101 11.714444,16.5496359 Z M9.71070326,13.446887 C9.68303625,13.4719991 9.62629394,13.5 9.53030896,13.5 C9.42201855,13.5 9.36376585,13.4664768 9.33865475,13.4394851 C9.36728486,13.4809674 9.39400239,13.5309946 9.42038698,13.5933254 C9.48429878,13.7443103 9.53030896,13.9331742 9.53030896,14 L9.53030896,16 C9.53030896,16.0716349 9.48554173,16.2603554 9.42282688,16.4097725 C9.39383837,16.4788371 9.36443478,16.5320146 9.34319944,16.5593743 C9.37758166,16.5280009 9.43432398,16.5 9.53030896,16.5 C9.63859936,16.5 9.69685206,16.5335232 9.72196316,16.5605149 C9.69333306,16.5190326 9.66661552,16.4690054 9.64023094,16.4066746 C9.57631913,16.2556897 9.53030896,16.0668258 9.53030896,16 L9.53030896,14 C9.53030896,13.9283651 9.57507618,13.7396446 9.63779104,13.5902275 C9.66677955,13.5211629 9.69618314,13.4679854 9.71741847,13.4406257 Z M9.34319944,16.5593743 C9.34205551,16.5608481 9.34093528,16.5622471 9.33984009,16.5635695 C9.34262899,16.5602019 9.34597741,16.5566867 9.34991465,16.553113 Z" fill="#FFFFFF" fill-rule="evenodd"></path>
            </g>
        </g>
    </g>
</svg>